<?xml version="1.0" standalone="no"?>
<!DOCTYPE svg PUBLIC "-//W3C//DTD SVG 20010904//EN"
 "http://www.w3.org/TR/2001/REC-SVG-20010904/DTD/svg10.dtd">
<svg version="1.0" xmlns="http://www.w3.org/2000/svg"
 width="1016.000000pt" height="958.000000pt" viewBox="0 0 1016.000000 958.000000"
 preserveAspectRatio="xMidYMid meet">
<metadata>
Created by potrace 1.16, written by Peter Selinger 2001-2019
</metadata>
<g transform="translate(0.000000,958.000000) scale(0.100000,-0.100000)"
fill="#000000" stroke="none">
<path d="M4925 8243 c-126 -11 -327 -38 -445 -59 -1199 -220 -2254 -955 -2886
-2009 -69 -116 -264 -498 -264 -518 0 -5 27 27 59 70 189 250 498 373 801 319
254 -46 468 -205 592 -440 36 -69 37 -70 43 -41 74 337 221 720 390 1020 407
721 998 1264 1754 1612 l116 53 -60 -2 c-33 -1 -78 -3 -100 -5z"/>
<path d="M5460 8238 c14 -6 93 -44 175 -83 840 -400 1528 -1134 1874 -2000 65
-164 138 -393 167 -522 11 -46 22 -83 25 -83 4 0 12 13 17 29 21 61 115 192
186 259 226 214 541 284 833 183 156 -54 311 -169 399 -296 20 -30 39 -53 41
-51 2 2 -29 73 -70 157 -630 1315 -1889 2219 -3332 2393 -181 22 -347 29 -315
14z"/>
<path d="M5359 6095 c-3 -2 -59 -6 -125 -7 -65 -1 -109 -4 -96 -6 l22 -3 0
-680 0 -679 100 0 100 0 2 690 c2 380 3 690 2 690 0 0 -3 -2 -5 -5z"/>
<path d="M3080 4545 c-538 -85 -900 -507 -900 -1050 0 -226 67 -439 195 -620
52 -73 180 -197 257 -248 413 -273 1034 -240 1360 72 l69 66 -94 94 -95 93
-73 -62 c-144 -120 -311 -181 -504 -181 -374 -1 -660 195 -778 535 -30 88 -32
97 -32 256 0 162 1 167 34 263 96 278 308 458 606 518 77 15 242 15 325 -1
139 -25 275 -94 373 -189 l47 -46 97 97 97 97 -20 22 c-87 99 -296 219 -449
259 -158 40 -353 50 -515 25z"/>
<path d="M5240 4555 c-8 -2 -49 -9 -90 -15 -230 -37 -434 -144 -596 -312 -87
-90 -122 -141 -179 -260 -168 -348 -129 -795 96 -1099 162 -219 398 -360 687
-410 295 -50 594 5 813 151 83 55 183 144 178 158 -2 5 -46 48 -97 97 l-92 87
-43 -39 c-149 -137 -330 -205 -548 -205 -454 1 -799 341 -799 788 0 387 234
686 606 775 103 24 261 28 364 9 139 -25 275 -94 373 -189 l47 -46 97 97 97
97 -29 32 c-112 118 -298 218 -485 260 -78 18 -357 35 -400 24z"/>
<path d="M6588 4533 c-17 -4 -18 -62 -18 -1033 l0 -1028 26 -6 c29 -8 231 -6
251 1 10 4 13 154 13 747 l0 741 371 -617 370 -618 72 0 72 1 147 247 c81 136
222 373 313 527 92 154 192 323 223 375 l57 95 5 -750 5 -751 136 -2 c134 -2
137 -1 143 21 3 12 4 112 2 222 -2 110 -5 567 -5 1016 l-1 816 -121 -1 -122
-1 -155 -265 c-177 -303 -176 -301 -461 -790 -117 -201 -219 -371 -225 -378
-9 -9 -25 10 -72 90 -328 555 -771 1299 -786 1321 -19 27 -21 27 -121 26 -56
-1 -110 -3 -119 -6z"/>
<path d="M3103 3590 c-48 -21 -73 -61 -73 -115 0 -117 130 -171 218 -91 34 32
37 39 37 89 0 45 -5 60 -25 82 -49 52 -96 63 -157 35z"/>
<path d="M5215 3596 c-56 -25 -80 -61 -80 -121 0 -43 5 -59 25 -80 86 -94 230
-44 230 80 0 91 -94 156 -175 121z"/>
<path d="M5437 1958 c1 -101 2 -186 3 -190 0 -5 16 -8 35 -8 l35 0 0 190 0
190 -38 0 -37 0 2 -182z"/>
<path d="M1132 2099 c-50 -25 -78 -61 -91 -118 -15 -66 4 -124 56 -174 67 -63
200 -62 256 0 18 20 17 21 -9 42 -26 21 -26 21 -51 1 -30 -23 -83 -26 -122 -6
-49 26 -66 98 -36 157 26 49 97 64 157 33 28 -15 31 -14 54 7 28 27 24 35 -30
60 -55 25 -130 24 -184 -2z"/>
<path d="M3744 2102 c-96 -46 -130 -164 -72 -259 53 -88 197 -109 283 -41 l27
21 -28 22 c-28 22 -28 22 -58 4 -91 -55 -193 23 -165 126 19 68 103 97 170 58
29 -17 30 -17 55 8 l26 26 -38 24 c-52 32 -144 37 -200 11z"/>
<path d="M6002 1943 l3 -178 37 -1 37 -2 3 101 3 101 49 -82 c33 -53 56 -82
68 -82 11 0 34 28 65 83 l48 82 5 -100 5 -100 38 -1 37 -2 0 179 0 179 -34 0
c-33 0 -37 -4 -99 -111 l-65 -111 -66 111 c-65 107 -69 111 -102 111 l-34 0 2
-177z"/>
<path d="M2329 2091 c-1 -3 -2 -17 -3 -31 -1 -18 -7 -26 -23 -28 -33 -5 -33
-59 -1 -64 20 -3 22 -9 23 -75 2 -86 19 -119 69 -128 31 -6 96 1 96 10 0 2 -5
16 -12 30 -8 18 -16 24 -30 19 -34 -10 -48 14 -48 82 l0 64 35 0 c32 0 35 2
35 30 0 28 -3 30 -35 30 -33 0 -35 2 -35 33 0 30 -2 32 -35 33 -19 0 -36 -2
-36 -5z"/>
<path d="M9335 2091 c-3 -2 -5 -17 -5 -33 0 -21 -5 -28 -20 -28 -16 0 -20 -7
-20 -30 0 -23 4 -30 20 -30 18 0 20 -7 20 -76 0 -70 2 -78 29 -105 22 -22 39
-29 68 -29 52 0 66 11 57 44 -4 19 -11 25 -22 21 -8 -3 -23 -3 -33 0 -16 5
-19 17 -19 76 l0 69 33 0 c32 0 33 2 29 30 -4 25 -9 30 -33 30 -25 0 -29 4
-29 29 0 26 -4 29 -35 33 -20 2 -38 2 -40 -1z"/>
<path d="M1475 2026 c-16 -7 -41 -26 -55 -41 -21 -22 -25 -37 -25 -87 0 -56 2
-62 37 -93 64 -59 152 -59 216 0 35 31 37 37 37 93 0 50 -4 65 -25 87 -47 52
-123 68 -185 41z m120 -79 c19 -28 19 -67 -1 -95 -11 -16 -25 -22 -54 -22 -43
0 -70 26 -70 68 0 71 86 105 125 49z"/>
<path d="M1744 2025 c-3 -8 -4 -57 -2 -110 3 -86 5 -97 29 -121 32 -32 95 -42
136 -22 22 11 32 12 40 3 6 -7 24 -10 41 -7 l29 4 1 116 c1 147 0 153 -43 149
l-33 -2 -4 -88 c-3 -98 -15 -117 -70 -117 -38 0 -48 24 -48 118 0 74 -2 80
-22 86 -36 9 -48 7 -54 -9z"/>
<path d="M2090 1900 l0 -136 33 2 c17 1 35 2 40 3 4 0 7 37 7 81 0 89 17 120
65 120 22 0 25 4 25 35 0 39 -16 45 -60 20 -19 -10 -28 -11 -39 -2 -8 7 -27
12 -43 13 l-28 0 0 -136z"/>
<path d="M2558 2024 c-34 -15 -36 -17 -25 -40 8 -19 16 -24 31 -19 52 14 73
16 99 6 15 -6 27 -18 27 -28 0 -15 -10 -18 -62 -21 -73 -3 -104 -20 -113 -62
-16 -75 77 -126 155 -85 27 14 30 14 30 0 0 -12 8 -15 33 -12 l32 3 3 91 c1
49 -2 102 -7 116 -23 60 -121 84 -203 51z"/>
<path d="M2904 2030 c-31 -12 -74 -68 -75 -98 -5 -100 49 -158 139 -150 26 3
54 8 63 12 13 6 16 2 12 -18 -3 -14 -11 -30 -19 -37 -17 -14 -96 -14 -122 0
-30 16 -38 14 -50 -14 -10 -23 -9 -26 21 -42 49 -25 158 -24 194 3 49 36 57
67 58 207 1 81 -2 130 -9 135 -20 12 -58 9 -63 -4 -4 -11 -10 -11 -33 1 -32
16 -83 19 -116 5z m124 -73 c6 -6 13 -24 17 -39 5 -21 1 -33 -20 -54 -21 -21
-32 -25 -58 -20 -17 4 -38 13 -46 21 -21 20 -18 75 4 91 24 17 89 18 103 1z"/>
<path d="M3255 2021 c-49 -30 -68 -58 -72 -108 -4 -39 0 -55 19 -83 44 -65
132 -88 204 -54 38 18 42 33 17 57 -16 13 -21 14 -43 2 -14 -8 -35 -14 -46
-15 -23 0 -74 35 -74 51 0 5 45 9 99 9 110 0 116 4 99 64 -21 80 -131 122
-203 77z"/>
<path d="M4075 2021 c-106 -49 -100 -205 10 -247 112 -42 224 33 211 140 -12
102 -120 154 -221 107z m139 -96 c14 -57 -14 -95 -70 -95 -81 0 -89 125 -9
142 30 7 72 -18 79 -47z"/>
<path d="M4354 2026 c-3 -7 -3 -68 -2 -137 l3 -124 35 0 35 0 3 85 c3 95 17
120 63 120 45 0 59 -31 59 -128 l0 -84 33 7 c17 4 35 13 39 19 15 22 3 182
-16 210 -29 45 -95 59 -148 32 -18 -10 -28 -11 -31 -3 -5 15 -67 18 -73 3z"/>
<path d="M4728 2025 c-32 -18 -48 -44 -48 -79 0 -36 30 -63 81 -71 66 -10 79
-15 79 -30 0 -27 -52 -31 -126 -10 -15 5 -23 0 -32 -19 -10 -23 -9 -27 11 -38
12 -7 55 -13 94 -13 65 0 75 3 99 27 55 54 25 119 -61 134 -59 9 -79 22 -64
40 13 16 56 18 94 4 22 -8 27 -7 37 15 16 36 1 46 -74 51 -45 3 -71 0 -90 -11z"/>
<path d="M5020 2022 c-23 -11 -43 -32 -58 -64 -21 -41 -22 -51 -12 -89 27 -98
149 -141 238 -82 l24 15 -22 23 c-20 21 -23 22 -51 8 -43 -22 -109 -2 -109 33
0 11 22 14 100 14 l100 0 0 28 c0 98 -116 162 -210 114z"/>
<path d="M5286 2032 c-3 -5 -4 -67 -3 -138 l2 -129 38 0 37 -1 0 136 0 137
-35 1 c-19 1 -36 -2 -39 -6z"/>
<path d="M5618 2025 c-80 -45 -58 -136 36 -150 63 -10 76 -15 76 -30 0 -27
-52 -31 -126 -10 -15 5 -23 0 -32 -20 -11 -25 -10 -27 25 -42 56 -23 148 -13
181 21 32 32 34 82 4 107 -12 9 -41 20 -65 24 -61 10 -81 23 -66 41 13 16 56
18 94 4 22 -8 27 -7 37 15 16 36 1 46 -74 51 -45 3 -71 0 -90 -11z"/>
<path d="M6530 2033 c-8 -3 -25 -10 -37 -14 -20 -8 -22 -11 -11 -34 9 -20 17
-25 32 -20 59 16 77 17 101 1 36 -24 31 -41 -12 -43 -21 0 -51 -1 -66 -2 -35
-1 -77 -42 -77 -75 0 -63 98 -109 154 -72 31 20 36 20 36 2 0 -10 9 -13 28
-11 15 2 30 4 35 4 4 1 7 39 7 86 0 107 -16 150 -64 170 -35 15 -97 19 -126 8z"/>
<path d="M6795 2032 c-3 -3 -5 -63 -5 -133 0 -137 4 -146 56 -133 23 6 24 10
24 89 0 91 13 115 63 115 42 0 57 -33 57 -126 l0 -82 33 2 c17 2 35 4 39 5 14
3 -1 203 -17 228 -28 42 -96 56 -147 29 -21 -11 -30 -12 -35 -3 -8 12 -58 19
-68 9z"/>
<path d="M7171 2027 c-40 -14 -46 -26 -28 -51 12 -17 18 -17 51 -6 20 6 48 9
61 6 27 -7 55 -46 33 -46 -137 -6 -183 -38 -163 -117 11 -45 108 -69 152 -38
15 10 22 12 25 3 5 -14 66 -18 71 -4 8 25 -3 197 -13 216 -24 44 -117 62 -189
37z"/>
<path d="M7503 2025 c-66 -28 -92 -118 -53 -182 35 -58 127 -83 178 -47 20 14
22 14 22 -4 0 -11 -8 -30 -18 -42 -20 -25 -76 -30 -127 -10 -25 9 -31 8 -42
-6 -20 -28 -16 -41 18 -53 105 -37 200 -15 233 52 13 30 16 60 14 168 l-3 132
-26 4 c-15 2 -32 -3 -38 -11 -10 -12 -16 -12 -39 0 -34 18 -78 17 -119 -1z"/>
<path d="M7860 2022 c-23 -11 -43 -32 -58 -64 -21 -41 -22 -51 -12 -89 27 -98
149 -141 238 -82 l24 15 -22 23 c-21 22 -25 23 -44 10 -11 -8 -29 -15 -39 -15
-28 0 -77 29 -77 45 0 12 19 15 100 15 l100 0 0 28 c0 98 -116 162 -210 114z"/>
<path d="M8138 2033 c-16 -4 -18 -19 -18 -133 l0 -128 30 -7 c16 -4 34 -4 40
0 5 3 10 41 10 83 0 90 15 122 59 122 44 0 51 -16 51 -112 0 -48 3 -89 8 -89
4 -1 22 -2 40 -3 l32 -2 0 81 c0 94 15 125 59 125 16 0 33 -6 39 -13 6 -7 12
-53 14 -103 l3 -89 35 0 35 0 0 107 c0 102 -1 109 -26 134 -37 36 -97 43 -144
15 l-37 -21 -25 20 c-30 23 -77 26 -115 6 -15 -8 -28 -11 -30 -6 -4 10 -40 18
-60 13z"/>
<path d="M8710 2022 c-45 -22 -83 -93 -74 -137 12 -57 34 -86 81 -107 53 -23
117 -21 159 7 l26 17 -22 23 c-20 21 -23 22 -51 8 -43 -22 -109 -2 -109 33 0
11 22 14 100 14 l100 0 0 28 c0 98 -116 162 -210 114z"/>
<path d="M8975 2031 c-3 -2 -5 -62 -5 -132 0 -126 0 -127 24 -133 48 -12 56 0
56 83 0 89 16 121 58 121 50 0 57 -12 62 -112 l5 -93 35 0 35 0 3 80 c4 89 -8
143 -37 169 -28 25 -93 32 -129 13 -26 -13 -31 -13 -36 -1 -5 13 -60 17 -71 5z"/>
<path d="M3691 1443 l-94 -4 7 -67 c18 -192 119 -397 267 -538 119 -113 259
-189 416 -225 82 -19 112 -21 231 -16 155 7 220 21 341 78 281 131 476 405
507 711 l7 68 -109 -4 -108 -4 -13 -77 c-44 -258 -242 -474 -498 -540 -78 -21
-242 -21 -320 0 -264 68 -470 298 -503 560 -5 43 -11 60 -22 60 -8 1 -57 -1
-109 -2z"/>
</g>
</svg>
