<svg width="57" height="62" viewBox="0 0 57 62" fill="none" xmlns="http://www.w3.org/2000/svg">
<path d="M9.252 11.984V14H0.972L1.62 13.352C2.808 12.164 3.738 11.198 4.41 10.454C5.094 9.698 5.658 8.942 6.102 8.186C6.558 7.418 6.786 6.692 6.786 6.008C6.786 5.36 6.588 4.862 6.192 4.514C5.796 4.166 5.304 3.992 4.716 3.992C4.08 3.992 3.588 4.172 3.24 4.532C2.892 4.892 2.718 5.294 2.718 5.738C2.718 6.482 2.952 7.1 3.42 7.592L2.142 8.762C1.71 8.522 1.356 8.096 1.08 7.484C0.816 6.86 0.684 6.296 0.684 5.792C0.684 5.132 0.858 4.508 1.206 3.92C1.554 3.332 2.058 2.864 2.718 2.516C3.39 2.156 4.176 1.976 5.076 1.976C5.832 1.976 6.504 2.156 7.092 2.516C7.692 2.864 8.154 3.332 8.478 3.92C8.802 4.508 8.964 5.144 8.964 5.828C8.964 6.512 8.808 7.19 8.496 7.862C8.184 8.534 7.806 9.158 7.362 9.734C6.93 10.31 6.318 11.06 5.526 11.984H9.252ZM19.0924 9.644V11.246H17.5984V14H15.4924V11.246H10.2004V11.228L17.5804 1.976H17.5984V9.644H19.0924ZM15.4924 9.644V6.782L13.2964 9.644H15.4924Z" transform="translate(37 16)" fill="black"/>
<path d="M21.1451 14.1364C20.1569 14.0266 19.1739 13.8069 18.2954 13.4774C17.0928 13.0381 15.7752 13.3676 14.7869 14.2462L14.0183 15.015C12.0471 13.7023 10.2954 12.0549 8.97778 9.97341L9.7464 9.20462C10.6248 8.326 10.949 6.90346 10.515 5.69536C10.1856 4.81674 9.96601 3.83351 9.85621 2.84506C9.64183 1.20288 8.21961 0 6.57255 0H3.28889C3.17909 0 3.06928 0 2.95948 0C2.08105 0.109828 1.31242 0.549139 0.768627 1.20288C0.224837 1.85661 0 2.74047 0 3.61386C0.329412 7.12312 1.64183 10.6272 3.5085 13.5873C5.26013 16.3277 7.67059 18.7387 10.4105 20.4907C13.3699 22.4624 16.8732 23.6705 20.3817 24C20.4915 24 20.6013 24 20.7111 24C21.5895 24 22.4627 23.6705 23.0118 23.0115C23.5608 22.3526 24 21.589 24 20.7104V17.4208C23.9948 15.7786 22.7922 14.3561 21.1451 14.1364ZM21.8039 17.426V20.7104C21.8039 21.0399 21.6941 21.2595 21.4745 21.4792C21.2549 21.6988 21.0353 21.8087 20.5961 21.8087C17.417 21.4792 14.3529 20.3861 11.6131 18.6289C9.09281 17.0965 7.01176 14.9052 5.36993 12.3844C3.61307 9.64393 2.52026 6.57398 2.19085 3.39943C2.19085 3.06995 2.30065 2.85029 2.41046 2.63064C2.63007 2.41098 2.95948 2.19133 3.28889 2.19133H6.57778C7.1268 2.19133 7.56601 2.63064 7.67582 3.17978C7.78562 4.27806 8.11503 5.48093 8.55425 6.46938C8.66405 6.90869 8.55425 7.34801 8.33464 7.67226L6.90196 8.98496C6.57255 9.31445 6.46275 9.86359 6.68235 10.2977C8.32418 13.2578 10.7346 15.6688 13.6941 17.311C14.1333 17.5306 14.6824 17.5306 15.0065 17.0913L16.4288 15.6688C16.7582 15.3393 17.1974 15.2295 17.6314 15.4491C18.7294 15.8884 19.8222 16.1081 20.9203 16.3277C21.3647 16.4376 21.8039 16.8769 21.8039 17.426Z" transform="translate(15 22)" fill="black"/>
<path d="M31.8867 62C14.3021 62 0 48.0956 0 31C0 13.9044 14.3021 0 31.8867 0C41.7601 0 50.904 4.33088 57 11.9036L55.1243 13.3219C49.4973 6.3317 41.0046 2.30474 31.8867 2.30474C15.6047 2.30474 2.37066 15.1708 2.37066 31C2.37066 46.8292 15.6047 59.6953 31.8867 59.6953C40.4314 59.6953 48.5594 56.0989 54.1865 49.7925L55.984 51.3121C49.9141 58.0997 41.1348 62 31.8867 62Z" fill="#B72F30"/>
</svg>
