<?xml version="1.0" encoding="utf-8"?>
<!-- Generator: Adobe Illustrator 22.0.1, SVG Export Plug-In . SVG Version: 6.00 Build 0)  -->
<svg version="1.1" id="Ebene_1" xmlns="http://www.w3.org/2000/svg" xmlns:xlink="http://www.w3.org/1999/xlink" x="0px" y="0px"
	 viewBox="0 0 57 62" style="enable-background:new 0 0 57 62;" xml:space="preserve">
<style type="text/css">
	.st0{fill:#FFFFFF;}
</style>
<path class="st0" d="M46.3,28v2H38l0.6-0.6c1.2-1.2,2.1-2.2,2.8-2.9c0.7-0.8,1.2-1.5,1.7-2.3c0.5-0.8,0.7-1.5,0.7-2.2
	c0-0.6-0.2-1.1-0.6-1.5S42.3,20,41.7,20c-0.6,0-1.1,0.2-1.5,0.5c-0.3,0.4-0.5,0.8-0.5,1.2c0,0.7,0.2,1.4,0.7,1.9l-1.3,1.2
	c-0.4-0.2-0.8-0.7-1.1-1.3c-0.3-0.6-0.4-1.2-0.4-1.7c0-0.7,0.2-1.3,0.5-1.9s0.9-1.1,1.5-1.4c0.7-0.4,1.5-0.5,2.4-0.5
	c0.8,0,1.4,0.2,2,0.5c0.6,0.3,1.1,0.8,1.4,1.4s0.5,1.2,0.5,1.9c0,0.7-0.2,1.4-0.5,2c-0.3,0.7-0.7,1.3-1.1,1.9
	c-0.4,0.6-1,1.3-1.8,2.3H46.3z M56.1,25.6v1.6h-1.5V30h-2.1v-2.8h-5.3v0l7.4-9.3h0v7.7H56.1z M52.5,25.6v-2.9l-2.2,2.9H52.5z"/>
<path class="st0" d="M36.1,36.1c-1-0.1-2-0.3-2.8-0.7c-1.2-0.4-2.5-0.1-3.5,0.8L29,37c-2-1.3-3.7-3-5-5l0.8-0.8
	c0.9-0.9,1.2-2.3,0.8-3.5c-0.3-0.9-0.5-1.9-0.7-2.9c-0.2-1.6-1.6-2.8-3.3-2.8h-3.3c-0.1,0-0.2,0-0.3,0c-0.9,0.1-1.6,0.5-2.2,1.2
	c-0.5,0.7-0.8,1.5-0.8,2.4c0.3,3.5,1.6,7,3.5,10c1.8,2.7,4.2,5.2,6.9,6.9c3,2,6.5,3.2,10,3.5c0.1,0,0.2,0,0.3,0c0.9,0,1.8-0.3,2.3-1
	c0.5-0.7,1-1.4,1-2.3v-3.3C39,37.8,37.8,36.4,36.1,36.1z M36.8,39.4v3.3c0,0.3-0.1,0.5-0.3,0.8c-0.2,0.2-0.4,0.3-0.9,0.3
	c-3.2-0.3-6.2-1.4-9-3.2c-2.5-1.5-4.6-3.7-6.2-6.2c-1.8-2.7-2.8-5.8-3.2-9c0-0.3,0.1-0.5,0.2-0.8c0.2-0.2,0.5-0.4,0.9-0.4h3.3
	c0.5,0,1,0.4,1.1,1c0.1,1.1,0.4,2.3,0.9,3.3c0.1,0.4,0,0.9-0.2,1.2L21.9,31c-0.3,0.3-0.4,0.9-0.2,1.3c1.6,3,4.1,5.4,7,7
	c0.4,0.2,1,0.2,1.3-0.2l1.4-1.4c0.3-0.3,0.8-0.4,1.2-0.2c1.1,0.4,2.2,0.7,3.3,0.9C36.4,38.4,36.8,38.9,36.8,39.4z"/>
<path class="st0" d="M31.9,62C14.3,62,0,48.1,0,31S14.3,0,31.9,0c9.9,0,19,4.3,25.1,11.9l-1.9,1.4c-5.6-7-14.1-11-23.2-11
	C15.6,2.3,2.4,15.2,2.4,31s13.2,28.7,29.5,28.7c8.5,0,16.7-3.6,22.3-9.9l1.8,1.5C49.9,58.1,41.1,62,31.9,62z"/>
</svg>
